<svg width="40" height="43" viewBox="0 0 40 43" fill="none" xmlns="http://www.w3.org/2000/svg">
<path d="M18.9472 0.00662087C15.5651 0.0474489 8.29375 0.603237 4.22674 4.33439C1.20152 7.33196 0.145256 11.7638 0.021455 17.244C-0.0812737 22.7044 -0.205075 32.9588 9.67926 35.7509V40.0036C9.67926 40.0036 9.61736 41.7052 10.7421 42.0542C12.1276 42.4928 12.9165 41.1837 14.2336 39.7771L16.6898 36.9995C23.4528 37.5618 28.6327 36.2659 29.2293 36.0736C30.6017 35.635 38.3313 34.6472 39.5944 24.3915C40.8903 13.7999 38.9635 7.12651 35.4852 4.10786H35.4642C34.4145 3.14116 30.196 0.0672044 20.7713 0.0329615C20.7713 0.0329615 20.072 -0.0144517 18.9472 0.00530383V0.00662087ZM19.0631 2.98443C20.0232 2.97785 20.6067 3.01868 20.6067 3.01868C28.584 3.03975 32.3915 5.4407 33.2897 6.24936C36.2188 8.75963 37.7281 14.7758 36.6231 23.6184C35.5735 32.1923 29.3044 32.7349 28.1441 33.105C27.6502 33.263 23.088 34.3878 17.3405 34.0177C17.3405 34.0177 13.0601 39.1831 11.722 40.5133C11.5099 40.7464 11.2623 40.8149 11.1043 40.7807C10.8778 40.7254 10.8093 40.4448 10.8225 40.0603L10.8633 33.0023C2.48036 30.6843 2.97424 21.9379 3.0638 17.3691C3.16653 12.8003 4.02392 9.06255 6.57633 6.53121C10.0125 3.42432 16.1867 3.00551 19.0605 2.98443H19.0631ZM19.6953 7.55191C19.6263 7.55121 19.5579 7.56418 19.4939 7.59006C19.4299 7.61594 19.3717 7.65423 19.3226 7.70271C19.2736 7.75119 19.2345 7.80891 19.2079 7.87254C19.1812 7.93617 19.1673 8.00446 19.1672 8.07345C19.1672 8.36847 19.4069 8.60158 19.6953 8.60158C21.0012 8.57675 22.299 8.81069 23.514 9.2899C24.729 9.76911 25.8371 10.4841 26.7744 11.3937C28.688 13.252 29.6205 15.7491 29.656 19.0141C29.656 19.3025 29.8891 19.5422 30.1842 19.5422V19.5211C30.3232 19.5215 30.4567 19.4668 30.5557 19.3691C30.6546 19.2714 30.7109 19.1386 30.7123 18.9996C30.7762 17.4628 30.527 15.929 29.9798 14.4916C29.4326 13.0541 28.5988 11.7429 27.529 10.6377C25.4442 8.60027 22.8022 7.55059 19.6953 7.55059V7.55191ZM12.7532 8.75963C12.3804 8.70516 12.0002 8.77999 11.6759 8.97167H11.6482C10.8952 9.41306 10.2169 9.97093 9.63844 10.6245C9.15772 11.1803 8.89695 11.7427 8.82846 12.284C8.78763 12.6067 8.81529 12.9294 8.91143 13.2375L8.94568 13.2586C9.48698 14.8496 10.1942 16.38 11.0582 17.8208C12.1711 19.845 13.5407 21.7171 15.1331 23.3906L15.1805 23.459L15.2556 23.5144L15.303 23.5697L15.3583 23.6171C17.0378 25.2141 18.9144 26.5901 20.9425 27.7117C23.2605 28.9735 24.6671 29.5701 25.5113 29.8177V29.8309C25.7589 29.9059 25.9841 29.9402 26.2107 29.9402C26.9302 29.8875 27.6113 29.5954 28.1454 29.1104C28.796 28.5318 29.3477 27.8507 29.7785 27.0941V27.0809C30.1828 26.3196 30.0459 25.5992 29.4624 25.1119C28.294 24.0906 27.0304 23.1834 25.6891 22.4028C24.7909 21.9155 23.8782 22.2105 23.5081 22.7044L22.7192 23.6987C22.3149 24.1926 21.58 24.1241 21.58 24.1241L21.5589 24.1373C16.0787 22.7373 14.6168 17.1886 14.6168 17.1886C14.6168 17.1886 14.5483 16.434 15.0554 16.0494L16.0432 15.2539C16.516 14.8693 16.8452 13.958 16.3382 13.0584C15.563 11.7153 14.6578 10.4514 13.6356 9.28512C13.4122 9.01017 13.0987 8.8231 12.7506 8.75699L12.7532 8.75963ZM20.6067 10.3243C19.9074 10.3243 19.9073 11.3805 20.6133 11.3805C21.4829 11.3946 22.3412 11.58 23.1391 11.926C23.9371 12.2719 24.659 12.7718 25.2637 13.3969C25.8153 14.0054 26.2392 14.7184 26.5102 15.4937C26.7812 16.269 26.8939 17.0908 26.8415 17.9104C26.8439 18.0491 26.9006 18.1813 26.9993 18.2788C27.098 18.3763 27.2309 18.4313 27.3697 18.4319L27.3907 18.4596C27.5305 18.4585 27.6642 18.4026 27.763 18.3038C27.8619 18.2049 27.9178 18.0712 27.9189 17.9315C27.9663 15.8387 27.3157 14.0831 26.0395 12.6765C24.7567 11.2699 22.9668 10.481 20.6818 10.3243H20.6067ZM21.472 13.1638C20.7516 13.1427 20.7239 14.2201 21.4377 14.2411C23.1736 14.3307 24.0165 15.2078 24.1271 17.0122C24.1295 17.1491 24.1855 17.2797 24.2829 17.3759C24.3804 17.4722 24.5117 17.5265 24.6487 17.5271H24.6697C24.7402 17.5241 24.8093 17.5071 24.8731 17.4771C24.9368 17.447 24.994 17.4046 25.0412 17.3523C25.0884 17.2999 25.1247 17.2387 25.148 17.1721C25.1713 17.1056 25.1811 17.0351 25.1768 16.9647C25.053 14.6125 23.7702 13.2876 21.4931 13.1651H21.472V13.1638Z" fill="#444444"/>
</svg>
